<svg xmlns="http://www.w3.org/2000/svg" xmlns:xlink="http://www.w3.org/1999/xlink" width="500" zoomAndPan="magnify" viewBox="0 0 375 374.999991" height="500" preserveAspectRatio="xMidYMid meet" version="1.0"><defs><g/><clipPath id="a6867b722b"><path d="M 231 94.421875 L 252 94.421875 L 252 164 L 231 164 Z M 231 94.421875 " clip-rule="nonzero"/></clipPath><clipPath id="475d4cb848"><path d="M 305 94.421875 L 325 94.421875 L 325 164 L 305 164 Z M 305 94.421875 " clip-rule="nonzero"/></clipPath><clipPath id="5ef6fc8354"><path d="M 229 120 L 328 120 L 328 242.921875 L 229 242.921875 Z M 229 120 " clip-rule="nonzero"/></clipPath><clipPath id="65cb37f908"><rect x="0" width="186" y="0" height="200"/></clipPath></defs><path fill="#4d8d74" d="M 319.160156 231.253906 C 320.761719 231.253906 322.066406 232.558594 322.066406 234.160156 C 322.066406 235.765625 320.765625 237.066406 319.160156 237.066406 L 307.539062 237.066406 C 304.953125 237.066406 303.667969 233.925781 305.484375 232.105469 C 306.035156 231.558594 306.765625 231.253906 307.539062 231.253906 Z M 319.160156 231.253906 " fill-opacity="1" fill-rule="nonzero"/><path fill="#4d8d74" d="M 278.488281 126.667969 C 280.089844 126.667969 281.394531 127.972656 281.394531 129.574219 C 281.394531 131.171875 280.097656 132.472656 278.503906 132.480469 C 278.496094 132.480469 278.492188 132.480469 278.488281 132.480469 C 278.480469 132.480469 278.476562 132.480469 278.46875 132.480469 C 276.878906 132.472656 275.582031 131.171875 275.582031 129.574219 C 275.582031 127.972656 276.886719 126.667969 278.488281 126.667969 Z M 278.488281 126.667969 " fill-opacity="1" fill-rule="nonzero"/><path fill="#4d8d74" d="M 249.4375 231.253906 C 252.023438 231.253906 253.308594 234.394531 251.492188 236.214844 C 250.941406 236.761719 250.210938 237.066406 249.4375 237.066406 L 237.816406 237.066406 C 235.230469 237.066406 233.945312 233.925781 235.761719 232.105469 C 236.3125 231.558594 237.039062 231.253906 237.816406 231.253906 Z M 249.4375 231.253906 " fill-opacity="1" fill-rule="nonzero"/><g clip-path="url(#a6867b722b)"><path fill="#000000" d="M 250.203125 162.675781 C 251.328125 161.53125 251.3125 159.691406 250.167969 158.566406 C 233.683594 142.375 233.683594 115.886719 250.167969 99.691406 C 251.3125 98.566406 251.328125 96.726562 250.203125 95.582031 C 249.078125 94.4375 247.238281 94.421875 246.09375 95.546875 C 227.292969 114.015625 227.292969 144.238281 246.09375 162.710938 C 247.238281 163.835938 249.078125 163.820312 250.203125 162.675781 Z M 250.203125 162.675781 " fill-opacity="1" fill-rule="nonzero"/></g><path fill="#000000" d="M 251.433594 147.535156 C 252.589844 148.65625 254.425781 148.621094 255.539062 147.46875 C 256.65625 146.316406 256.625 144.476562 255.472656 143.363281 C 247.402344 135.546875 247.429688 122.683594 255.472656 114.894531 C 256.625 113.78125 256.65625 111.941406 255.539062 110.789062 C 254.425781 109.632812 252.585938 109.605469 251.433594 110.722656 C 240.996094 120.828125 241.035156 137.46875 251.433594 147.535156 Z M 251.433594 147.535156 " fill-opacity="1" fill-rule="nonzero"/><path fill="#000000" d="M 259.09375 137.792969 C 260.273438 138.878906 262.109375 138.800781 263.199219 137.617188 C 264.28125 136.4375 264.203125 134.597656 263.023438 133.511719 C 260.433594 131.136719 260.460938 127.097656 263.023438 124.746094 C 264.203125 123.660156 264.28125 121.824219 263.199219 120.640625 C 262.113281 119.457031 260.273438 119.378906 259.09375 120.464844 C 254.019531 125.125 254.015625 133.132812 259.09375 137.792969 Z M 259.09375 137.792969 " fill-opacity="1" fill-rule="nonzero"/><g clip-path="url(#475d4cb848)"><path fill="#000000" d="M 306.808594 158.566406 C 305.664062 159.691406 305.648438 161.53125 306.773438 162.675781 C 307.898438 163.820312 309.738281 163.835938 310.882812 162.710938 C 329.683594 144.242188 329.683594 114.019531 310.882812 95.546875 C 309.738281 94.421875 307.898438 94.4375 306.773438 95.582031 C 305.648438 96.726562 305.664062 98.566406 306.808594 99.691406 C 323.292969 115.882812 323.292969 142.375 306.808594 158.566406 Z M 306.808594 158.566406 " fill-opacity="1" fill-rule="nonzero"/></g><path fill="#000000" d="M 301.503906 143.363281 C 300.351562 144.480469 300.320312 146.316406 301.4375 147.472656 C 302.554688 148.625 304.394531 148.652344 305.542969 147.539062 C 315.980469 137.429688 315.941406 120.789062 305.542969 110.722656 C 304.390625 109.605469 302.550781 109.636719 301.4375 110.789062 C 300.320312 111.941406 300.351562 113.78125 301.503906 114.898438 C 309.574219 122.710938 309.542969 135.578125 301.503906 143.363281 Z M 301.503906 143.363281 " fill-opacity="1" fill-rule="nonzero"/><path fill="#000000" d="M 293.777344 137.617188 C 294.859375 138.792969 296.695312 138.882812 297.882812 137.792969 C 302.957031 133.136719 302.960938 125.125 297.882812 120.464844 C 296.703125 119.378906 294.863281 119.457031 293.777344 120.640625 C 292.695312 121.824219 292.773438 123.660156 293.953125 124.746094 C 296.542969 127.121094 296.515625 131.164062 293.953125 133.511719 C 292.773438 134.597656 292.695312 136.4375 293.777344 137.617188 Z M 293.777344 137.617188 " fill-opacity="1" fill-rule="nonzero"/><g clip-path="url(#5ef6fc8354)"><path fill="#000000" d="M 319.160156 225.445312 L 314.101562 225.445312 C 312.296875 220.453125 284.164062 142.550781 282.308594 137.40625 C 285.203125 135.988281 287.203125 133.011719 287.203125 129.574219 C 287.203125 124.769531 283.292969 120.859375 278.488281 120.859375 C 273.683594 120.859375 269.773438 124.769531 269.773438 129.574219 C 269.773438 133.011719 271.773438 135.988281 274.667969 137.40625 C 272.972656 142.101562 244.550781 220.804688 242.875 225.445312 L 237.816406 225.445312 C 233.011719 225.445312 229.101562 229.355469 229.101562 234.160156 C 229.101562 238.964844 233.011719 242.875 237.816406 242.875 L 249.4375 242.875 C 254.242188 242.875 258.152344 238.964844 258.152344 234.160156 C 258.152344 229.355469 254.242188 225.445312 249.4375 225.445312 L 249.054688 225.445312 L 252.203125 216.730469 L 304.773438 216.730469 L 307.921875 225.445312 L 307.539062 225.445312 C 302.734375 225.445312 298.824219 229.355469 298.824219 234.160156 C 298.824219 238.964844 302.734375 242.875 307.539062 242.875 L 319.160156 242.875 C 323.964844 242.875 327.875 238.964844 327.875 234.160156 C 327.875 229.355469 323.964844 225.445312 319.160156 225.445312 Z M 249.4375 231.253906 C 251.039062 231.253906 252.339844 232.558594 252.339844 234.160156 C 252.339844 235.761719 251.039062 237.066406 249.4375 237.066406 L 237.816406 237.066406 C 236.214844 237.066406 234.910156 235.761719 234.910156 234.160156 C 234.910156 232.558594 236.214844 231.253906 237.816406 231.253906 Z M 278.488281 126.667969 C 280.089844 126.667969 281.394531 127.972656 281.394531 129.574219 C 281.394531 131.175781 280.089844 132.480469 278.488281 132.480469 C 276.886719 132.480469 275.582031 131.175781 275.582031 129.574219 C 275.582031 127.972656 276.886719 126.667969 278.488281 126.667969 Z M 278.488281 143.9375 L 283.558594 157.980469 L 268.625 171.253906 Z M 254.300781 210.917969 L 263.019531 186.773438 L 297.582031 210.917969 Z M 265.742188 181.589844 L 285.683594 163.863281 L 300.972656 206.199219 Z M 319.160156 237.066406 L 307.539062 237.066406 C 305.9375 237.066406 304.632812 235.761719 304.632812 234.160156 C 304.632812 232.558594 305.9375 231.253906 307.539062 231.253906 L 319.160156 231.253906 C 320.761719 231.253906 322.066406 232.558594 322.066406 234.160156 C 322.066406 235.761719 320.761719 237.066406 319.160156 237.066406 Z M 319.160156 237.066406 " fill-opacity="1" fill-rule="nonzero"/></g><g transform="matrix(1, 0, 0, 1, 43, 87)"><g clip-path="url(#65cb37f908)"><g fill="#000000" fill-opacity="1"><g transform="translate(1.871169, 148.793448)"><g><path d="M 26.027344 -3.8125 L 62.609375 -3.8125 C 62.945312 -3.8125 63.160156 -3.824219 63.253906 -3.855469 C 63.023438 -3.785156 62.800781 -3.628906 62.59375 -3.390625 C 62.429688 -3.203125 62.335938 -3.050781 62.304688 -2.925781 C 62.347656 -3.109375 62.367188 -3.421875 62.367188 -3.867188 L 62.367188 -6.988281 C 62.367188 -7.394531 62.347656 -7.683594 62.304688 -7.855469 C 62.328125 -7.757812 62.40625 -7.632812 62.542969 -7.480469 C 62.703125 -7.296875 62.863281 -7.175781 63.027344 -7.117188 C 62.925781 -7.15625 62.714844 -7.183594 62.398438 -7.199219 L 46.902344 -8.363281 L 46.902344 -96.015625 L 75.867188 -96.015625 L 78.75 -76.367188 L 78.761719 -76.1875 C 78.773438 -75.925781 78.796875 -75.761719 78.824219 -75.691406 C 78.761719 -75.839844 78.648438 -75.976562 78.484375 -76.105469 C 78.363281 -76.195312 78.265625 -76.253906 78.183594 -76.273438 C 78.28125 -76.25 78.445312 -76.238281 78.671875 -76.238281 L 78.671875 -72.425781 L 78.492188 -76.234375 L 81.613281 -76.382812 L 81.796875 -72.574219 L 81.292969 -76.351562 C 81.472656 -76.375 81.578125 -76.394531 81.605469 -76.40625 C 81.429688 -76.324219 81.265625 -76.191406 81.117188 -76 C 81.003906 -75.855469 80.9375 -75.734375 80.914062 -75.636719 C 80.941406 -75.765625 80.957031 -75.984375 80.957031 -76.292969 L 80.957031 -100.238281 C 80.957031 -100.71875 80.9375 -101.058594 80.894531 -101.253906 C 80.925781 -101.105469 81.035156 -100.929688 81.21875 -100.726562 C 81.449219 -100.472656 81.683594 -100.3125 81.925781 -100.246094 C 81.816406 -100.277344 81.574219 -100.292969 81.199219 -100.292969 L 7.4375 -100.292969 C 7.0625 -100.292969 6.820312 -100.277344 6.710938 -100.246094 C 6.953125 -100.3125 7.1875 -100.472656 7.414062 -100.726562 C 7.601562 -100.929688 7.710938 -101.105469 7.742188 -101.253906 C 7.699219 -101.058594 7.679688 -100.71875 7.679688 -100.238281 L 7.679688 -76.292969 C 7.679688 -75.882812 7.699219 -75.585938 7.746094 -75.398438 C 7.722656 -75.488281 7.648438 -75.609375 7.515625 -75.765625 C 7.316406 -76 7.09375 -76.160156 6.847656 -76.242188 L 6.824219 -76.253906 C 6.902344 -76.242188 7.007812 -76.238281 7.136719 -76.238281 L 10.113281 -76.238281 C 10.234375 -76.238281 10.3125 -76.242188 10.347656 -76.25 C 10.242188 -76.222656 10.132812 -76.164062 10.019531 -76.070312 C 9.898438 -75.972656 9.816406 -75.882812 9.773438 -75.792969 C 9.824219 -75.898438 9.863281 -76.089844 9.890625 -76.375 L 9.898438 -76.460938 L 12.769531 -96.015625 L 41.585938 -96.015625 L 41.585938 -8.363281 L 26.160156 -7.203125 C 25.855469 -7.1875 25.667969 -7.164062 25.601562 -7.136719 C 25.78125 -7.207031 25.953125 -7.335938 26.117188 -7.527344 C 26.242188 -7.671875 26.3125 -7.789062 26.335938 -7.871094 C 26.289062 -7.691406 26.269531 -7.398438 26.269531 -6.988281 L 26.269531 -3.867188 C 26.269531 -3.460938 26.289062 -3.175781 26.332031 -3.007812 C 26.300781 -3.125 26.210938 -3.269531 26.058594 -3.4375 C 25.867188 -3.648438 25.667969 -3.785156 25.460938 -3.847656 C 25.542969 -3.824219 25.730469 -3.8125 26.027344 -3.8125 Z M 26.027344 3.8125 C 23.574219 3.8125 21.703125 3.105469 20.417969 1.691406 C 19.234375 0.390625 18.644531 -1.460938 18.644531 -3.867188 L 18.644531 -6.988281 C 18.644531 -9.339844 19.203125 -11.167969 20.320312 -12.472656 C 21.527344 -13.894531 23.285156 -14.671875 25.59375 -14.804688 L 37.488281 -15.699219 L 37.773438 -11.898438 L 33.964844 -11.898438 L 33.964844 -92.207031 L 37.773438 -92.207031 L 37.773438 -88.394531 L 16.0625 -88.394531 L 16.0625 -92.207031 L 19.832031 -91.652344 L 17.453125 -75.441406 L 13.683594 -75.996094 L 17.472656 -75.617188 C 17.230469 -73.195312 16.335938 -71.363281 14.78125 -70.121094 C 13.527344 -69.117188 11.972656 -68.613281 10.113281 -68.613281 L 7.136719 -68.613281 C 4.769531 -68.613281 2.960938 -69.355469 1.703125 -70.835938 C 0.605469 -72.128906 0.0546875 -73.949219 0.0546875 -76.292969 L 0.0546875 -100.238281 C 0.0546875 -105.355469 2.515625 -107.914062 7.4375 -107.914062 L 81.199219 -107.914062 C 86.121094 -107.914062 88.582031 -105.355469 88.582031 -100.238281 L 88.582031 -76.292969 C 88.582031 -74.214844 88.09375 -72.550781 87.121094 -71.304688 C 86.039062 -69.917969 84.429688 -69.082031 82.300781 -68.796875 L 82.136719 -68.777344 L 78.761719 -68.613281 L 78.671875 -68.613281 C 76.6875 -68.613281 75.066406 -69.105469 73.804688 -70.085938 C 72.160156 -71.367188 71.273438 -73.273438 71.148438 -75.804688 L 74.953125 -75.996094 L 71.183594 -75.441406 L 68.804688 -91.652344 L 72.574219 -92.207031 L 72.574219 -88.394531 L 50.714844 -88.394531 L 50.714844 -92.207031 L 54.523438 -92.207031 L 54.523438 -11.898438 L 50.714844 -11.898438 L 51 -15.699219 L 62.820312 -14.808594 C 65.21875 -14.675781 67.027344 -13.914062 68.257812 -12.523438 C 69.414062 -11.210938 69.992188 -9.367188 69.992188 -6.988281 L 69.992188 -3.867188 C 69.992188 -1.464844 69.433594 0.371094 68.316406 1.640625 C 67.046875 3.089844 65.144531 3.8125 62.609375 3.8125 Z M 26.027344 3.8125 "/></g></g></g><g fill="#000000" fill-opacity="1"><g transform="translate(90.497796, 148.793448)"><g><path d="M 12.046875 -3.8125 L 79.566406 -3.8125 C 79.769531 -3.8125 79.890625 -3.816406 79.933594 -3.832031 C 79.742188 -3.769531 79.558594 -3.648438 79.386719 -3.460938 C 79.242188 -3.308594 79.152344 -3.171875 79.121094 -3.050781 C 79.15625 -3.179688 79.175781 -3.402344 79.175781 -3.71875 L 79.175781 -27.808594 C 79.175781 -28.171875 79.15625 -28.433594 79.117188 -28.589844 C 79.140625 -28.492188 79.21875 -28.363281 79.347656 -28.203125 C 79.542969 -27.964844 79.765625 -27.800781 80.015625 -27.710938 L 80.039062 -27.699219 C 79.957031 -27.710938 79.847656 -27.71875 79.714844 -27.71875 L 76.589844 -27.71875 C 76.417969 -27.71875 76.304688 -27.710938 76.25 -27.699219 C 76.367188 -27.726562 76.496094 -27.792969 76.632812 -27.898438 C 76.78125 -28.015625 76.886719 -28.128906 76.9375 -28.246094 C 76.886719 -28.132812 76.84375 -27.917969 76.816406 -27.597656 L 76.804688 -27.5 L 73.929688 -8.085938 L 28.015625 -8.085938 L 28.015625 -50.0625 L 60.703125 -50.0625 L 61.367188 -38.777344 L 61.367188 -38.667969 C 61.367188 -38.628906 61.367188 -38.605469 61.371094 -38.59375 C 61.351562 -38.660156 61.3125 -38.742188 61.246094 -38.835938 C 60.878906 -39.378906 60.339844 -39.652344 59.636719 -39.652344 L 62.609375 -39.652344 C 62.535156 -39.652344 62.429688 -39.621094 62.285156 -39.554688 C 62.03125 -39.441406 61.820312 -39.273438 61.648438 -39.050781 C 61.546875 -38.921875 61.484375 -38.804688 61.457031 -38.703125 C 61.46875 -38.75 61.476562 -38.835938 61.476562 -38.964844 L 61.476562 -64.097656 C 61.476562 -64.347656 61.464844 -64.515625 61.445312 -64.597656 C 61.488281 -64.417969 61.597656 -64.226562 61.773438 -64.023438 C 62.007812 -63.746094 62.285156 -63.554688 62.59375 -63.445312 C 62.660156 -63.421875 62.710938 -63.410156 62.753906 -63.402344 C 62.722656 -63.40625 62.675781 -63.410156 62.609375 -63.410156 L 59.636719 -63.410156 C 60.214844 -63.410156 60.707031 -63.648438 61.117188 -64.128906 C 61.382812 -64.4375 61.515625 -64.722656 61.515625 -64.988281 L 61.515625 -64.871094 L 60.835938 -54.039062 L 28.015625 -54.039062 L 28.015625 -96.015625 L 73.753906 -96.015625 L 76.804688 -76.480469 L 76.8125 -76.375 C 76.84375 -76.058594 76.886719 -75.839844 76.941406 -75.722656 C 76.898438 -75.820312 76.808594 -75.925781 76.671875 -76.039062 C 76.535156 -76.148438 76.402344 -76.222656 76.277344 -76.253906 C 76.324219 -76.242188 76.425781 -76.238281 76.589844 -76.238281 L 79.566406 -76.238281 C 79.695312 -76.238281 79.800781 -76.242188 79.878906 -76.253906 L 79.855469 -76.242188 C 79.609375 -76.160156 79.386719 -76 79.1875 -75.765625 C 79.054688 -75.609375 78.980469 -75.488281 78.957031 -75.398438 C 79.003906 -75.585938 79.023438 -75.882812 79.023438 -76.292969 L 79.023438 -100.238281 C 79.023438 -100.679688 79.003906 -100.992188 78.957031 -101.171875 C 78.992188 -101.03125 79.097656 -100.867188 79.273438 -100.679688 C 79.484375 -100.453125 79.699219 -100.3125 79.917969 -100.25 C 79.816406 -100.277344 79.601562 -100.292969 79.265625 -100.292969 L 12.046875 -100.292969 C 11.710938 -100.292969 11.496094 -100.277344 11.402344 -100.25 C 11.632812 -100.320312 11.855469 -100.472656 12.066406 -100.714844 C 12.226562 -100.898438 12.324219 -101.054688 12.351562 -101.179688 C 12.308594 -100.996094 12.289062 -100.679688 12.289062 -100.238281 L 12.289062 -96.964844 C 12.289062 -96.5625 12.308594 -96.273438 12.351562 -96.105469 C 12.324219 -96.222656 12.230469 -96.367188 12.078125 -96.535156 C 11.886719 -96.746094 11.6875 -96.882812 11.480469 -96.945312 C 11.5625 -96.921875 11.75 -96.910156 12.046875 -96.910156 L 12.292969 -96.910156 L 22.699219 -95.550781 L 22.699219 -8.550781 L 12.398438 -7.207031 L 12.257812 -7.199219 C 11.941406 -7.183594 11.730469 -7.15625 11.628906 -7.117188 C 11.792969 -7.175781 11.953125 -7.296875 12.117188 -7.480469 C 12.25 -7.632812 12.328125 -7.757812 12.355469 -7.855469 C 12.308594 -7.683594 12.289062 -7.394531 12.289062 -6.988281 L 12.289062 -3.867188 C 12.289062 -3.421875 12.308594 -3.109375 12.351562 -2.925781 C 12.324219 -3.050781 12.226562 -3.203125 12.066406 -3.390625 C 11.855469 -3.628906 11.632812 -3.785156 11.402344 -3.855469 C 11.496094 -3.824219 11.710938 -3.8125 12.046875 -3.8125 Z M 12.046875 3.8125 C 9.511719 3.8125 7.609375 3.089844 6.339844 1.640625 C 5.222656 0.371094 4.664062 -1.464844 4.664062 -3.867188 L 4.664062 -6.988281 C 4.664062 -9.367188 5.242188 -11.210938 6.398438 -12.523438 C 7.628906 -13.914062 9.441406 -14.675781 11.835938 -14.808594 L 12.046875 -11.003906 L 11.554688 -14.785156 L 18.394531 -15.675781 L 18.886719 -11.898438 L 15.074219 -11.898438 L 15.074219 -92.207031 L 18.886719 -92.207031 L 18.394531 -88.425781 L 11.554688 -89.320312 L 12.046875 -93.097656 L 12.046875 -89.285156 C 9.59375 -89.285156 7.722656 -89.992188 6.4375 -91.40625 C 5.257812 -92.707031 4.664062 -94.558594 4.664062 -96.964844 L 4.664062 -100.238281 C 4.664062 -102.640625 5.222656 -104.476562 6.339844 -105.746094 C 7.609375 -107.191406 9.511719 -107.914062 12.046875 -107.914062 L 79.265625 -107.914062 C 81.714844 -107.914062 83.570312 -107.238281 84.835938 -105.890625 C 86.042969 -104.605469 86.648438 -102.71875 86.648438 -100.238281 L 86.648438 -76.292969 C 86.648438 -73.949219 86.097656 -72.128906 85 -70.835938 C 83.742188 -69.355469 81.933594 -68.613281 79.566406 -68.613281 L 76.589844 -68.613281 C 74.660156 -68.613281 73.070312 -69.128906 71.824219 -70.152344 C 70.335938 -71.378906 69.46875 -73.199219 69.230469 -75.617188 L 73.019531 -75.996094 L 69.253906 -75.40625 L 66.726562 -91.617188 L 70.492188 -92.207031 L 70.492188 -88.394531 L 31.824219 -88.394531 L 31.824219 -92.207031 L 35.636719 -92.207031 L 35.636719 -57.851562 L 31.824219 -57.851562 L 31.824219 -61.664062 L 57.257812 -61.664062 L 57.257812 -57.851562 L 53.453125 -58.089844 L 53.898438 -65.226562 L 57.703125 -64.988281 L 53.890625 -64.988281 C 53.890625 -66.601562 54.371094 -67.96875 55.328125 -69.085938 C 56.441406 -70.382812 57.875 -71.03125 59.636719 -71.03125 L 62.609375 -71.03125 C 64.746094 -71.03125 66.402344 -70.34375 67.574219 -68.96875 C 68.589844 -67.773438 69.097656 -66.152344 69.097656 -64.097656 L 69.097656 -38.964844 C 69.097656 -37.148438 68.632812 -35.632812 67.699219 -34.414062 C 66.480469 -32.824219 64.785156 -32.03125 62.609375 -32.03125 L 59.636719 -32.03125 C 57.648438 -32.03125 56.082031 -32.871094 54.941406 -34.554688 C 54.140625 -35.730469 53.742188 -37.101562 53.742188 -38.667969 L 57.554688 -38.667969 L 53.75 -38.441406 L 53.304688 -46.027344 L 57.109375 -46.25 L 57.109375 -42.441406 L 31.824219 -42.441406 L 31.824219 -46.25 L 35.636719 -46.25 L 35.636719 -11.898438 L 31.824219 -11.898438 L 31.824219 -15.707031 L 70.640625 -15.707031 L 70.640625 -11.898438 L 66.871094 -12.457031 L 69.25 -28.519531 L 73.019531 -27.960938 L 69.226562 -28.320312 C 69.464844 -30.832031 70.382812 -32.703125 71.976562 -33.933594 C 73.191406 -34.871094 74.730469 -35.339844 76.589844 -35.339844 L 79.714844 -35.339844 C 82.144531 -35.339844 83.988281 -34.570312 85.246094 -33.03125 C 86.28125 -31.769531 86.796875 -30.027344 86.796875 -27.808594 L 86.796875 -3.71875 C 86.796875 -1.386719 86.179688 0.4375 84.949219 1.75 C 83.660156 3.125 81.867188 3.8125 79.566406 3.8125 Z M 12.046875 3.8125 "/></g></g></g><g fill="#4d8d74" fill-opacity="1"><g transform="translate(1.871169, 148.793448)"><g><path d="M 26.027344 0 L 62.609375 0 C 65.4375 0 66.179688 -1.042969 66.179688 -3.867188 L 66.179688 -6.988281 C 66.179688 -9.816406 65.289062 -10.855469 62.609375 -11.003906 L 50.714844 -11.898438 L 50.714844 -92.207031 L 72.574219 -92.207031 L 74.953125 -75.996094 C 75.101562 -73.019531 76.738281 -72.425781 78.671875 -72.425781 L 81.796875 -72.574219 C 84.027344 -72.871094 84.769531 -73.914062 84.769531 -76.292969 L 84.769531 -100.238281 C 84.769531 -103.210938 84.027344 -104.101562 81.199219 -104.101562 L 7.4375 -104.101562 C 4.609375 -104.101562 3.867188 -103.210938 3.867188 -100.238281 L 3.867188 -76.292969 C 3.867188 -73.46875 4.757812 -72.425781 7.136719 -72.425781 L 10.113281 -72.425781 C 11.75 -72.425781 13.382812 -73.019531 13.683594 -75.996094 L 16.0625 -92.207031 L 37.773438 -92.207031 L 37.773438 -11.898438 L 25.878906 -11.003906 C 23.347656 -10.855469 22.457031 -9.816406 22.457031 -6.988281 L 22.457031 -3.867188 C 22.457031 -1.042969 23.347656 0 26.027344 0 Z M 26.027344 0 "/></g></g></g><g fill="#4d8d74" fill-opacity="1"><g transform="translate(90.497796, 148.793448)"><g><path d="M 12.046875 0 L 79.566406 0 C 81.945312 0 82.984375 -1.042969 82.984375 -3.71875 L 82.984375 -27.808594 C 82.984375 -30.339844 82.242188 -31.527344 79.714844 -31.527344 L 76.589844 -31.527344 C 74.953125 -31.527344 73.316406 -31.082031 73.019531 -27.960938 L 70.640625 -11.898438 L 31.824219 -11.898438 L 31.824219 -46.25 L 57.109375 -46.25 L 57.554688 -38.667969 C 57.554688 -37.179688 58.296875 -35.839844 59.636719 -35.839844 L 62.609375 -35.839844 C 64.542969 -35.839844 65.289062 -37.179688 65.289062 -38.964844 L 65.289062 -64.097656 C 65.289062 -66.328125 64.542969 -67.222656 62.609375 -67.222656 L 59.636719 -67.222656 C 58.445312 -67.222656 57.703125 -66.328125 57.703125 -64.988281 L 57.257812 -57.851562 L 31.824219 -57.851562 L 31.824219 -92.207031 L 70.492188 -92.207031 L 73.019531 -75.996094 C 73.316406 -73.019531 74.804688 -72.425781 76.589844 -72.425781 L 79.566406 -72.425781 C 81.945312 -72.425781 82.835938 -73.46875 82.835938 -76.292969 L 82.835938 -100.238281 C 82.835938 -103.210938 81.945312 -104.101562 79.265625 -104.101562 L 12.046875 -104.101562 C 9.21875 -104.101562 8.476562 -103.0625 8.476562 -100.238281 L 8.476562 -96.964844 C 8.476562 -94.140625 9.371094 -93.097656 12.046875 -93.097656 L 18.886719 -92.207031 L 18.886719 -11.898438 L 12.046875 -11.003906 C 9.371094 -10.855469 8.476562 -9.816406 8.476562 -6.988281 L 8.476562 -3.867188 C 8.476562 -1.042969 9.21875 0 12.046875 0 Z M 12.046875 0 "/></g></g></g></g></g></svg>